<svg id="Capa_1" enable-background="new 0 0 511.886 511.886" height="512" viewBox="0 0 511.886 511.886" width="512" xmlns="http://www.w3.org/2000/svg"><g><path d="m361.724 78.902v-78.902l-300.954 82.459v429.427h390.347v-432.984zm-30-39.576v39.576h-144.444zm89.392 69.576v267.276l-30.043-30.043-45.043 45.043-45.043-45.043-45.043 45.043-45.043-45.043-45.043 45.043-45.043-45.043-30.045 30.043v-267.276zm-330.346 372.984v-63.282l30.043-30.043 45.043 45.043 45.043-45.043 45.043 45.043 45.043-45.043 45.043 45.043 45.043-45.043 30.043 30.043v63.282z"/><path d="m375.943 304.038v-30h-23.186c-6.476-42.114-39.778-75.482-81.814-81.98v-23.085h-30v23.085c-42.036 6.498-75.338 39.866-81.814 81.98h-23.186v30zm-120-83.129c32.332 0 59.463 22.754 66.297 53.129h-132.594c6.834-30.374 33.965-53.129 66.297-53.129z"/></g></svg>